<svg width="271" height="131" viewBox="0 0 271 131" fill="none" xmlns="http://www.w3.org/2000/svg">
<g clip-path="url(#clip0_50_6)">
<path fill-rule="evenodd" clip-rule="evenodd" d="M90.769 56.7658C90.0641 56.3583 89.459 56.0037 89.1401 55.8145C87.2028 54.6593 82.0429 52.3736 79 49.5657C76.6778 47.4242 75.5775 44.9731 77.2289 42.4827C78.73 40.2191 81.7755 39.5956 85.4685 40.1243C93.4165 41.2621 104.447 47.5605 107.287 50.3238C107.597 50.6257 107.605 51.1202 107.303 51.4302C107.003 51.7388 106.508 51.7462 106.198 51.4444C103.471 48.7933 92.8768 42.7643 85.2466 41.6717C82.2641 41.2451 79.7441 41.5189 78.5319 43.3478C77.3347 45.1521 78.3763 46.8636 80.0598 48.416C83.0206 51.1493 88.0544 53.3474 89.9413 54.4713C91.1238 55.1764 95.7097 57.7385 96.0499 58.0527C96.4762 58.446 96.3037 58.8674 96.2367 59.0014C96.185 59.1054 95.8933 59.607 95.2185 59.3836C85.5948 56.2036 68.6259 57.9851 55.1461 64.8769C41.7847 71.7081 31.8371 83.6116 36.1551 100.852C36.2591 101.271 36.0042 101.696 35.5866 101.801C35.1676 101.905 34.7426 101.65 34.6386 101.231C30.1146 83.1674 40.4356 70.6414 54.4332 63.4848C66.23 57.453 80.6285 55.2732 90.769 56.7658Z" fill="black"/>
<path fill-rule="evenodd" clip-rule="evenodd" d="M35.2941 100.116C36.0767 98.4466 36.8028 96.7596 37.7155 95.1501C40.1466 90.8617 43.5808 86.9206 47.7522 84.261C48.1178 84.029 48.6006 84.137 48.8327 84.4998C49.0646 84.8654 48.9566 85.3482 48.5938 85.5802C44.6334 88.102 41.3829 91.8524 39.0768 95.9212C38.0329 97.764 37.236 99.712 36.3139 101.614C36.2667 101.709 35.8913 102.547 35.7634 102.703C35.4678 103.066 35.1133 103.028 34.9516 102.989C34.8161 102.958 34.6612 102.889 34.5152 102.739C34.3961 102.615 34.2251 102.328 34.0784 101.894C33.6039 100.508 32.9614 97.1154 32.797 96.5698C30.9134 90.3141 28.1108 84.8105 25.3051 78.9425C25.1203 78.5523 25.2848 78.0845 25.6737 77.8982C26.0625 77.7118 26.5289 77.8778 26.7152 78.2666C29.5569 84.2088 32.3872 89.786 34.2928 96.118C34.4071 96.4927 34.9255 98.6027 35.2941 100.116Z" fill="black"/>
</g>
<path d="M140.325 42.8764C138.989 43.8464 138.654 48.035 139.746 50.0683C140.595 51.6016 141.717 51.5079 142.689 49.8077C143.735 48.0251 143.431 44.7728 142.122 43.4586C141.13 42.4438 140.974 42.412 140.325 42.8764Z" fill="black"/>
<path d="M129.119 39.362C127.782 40.332 127.448 44.5206 128.54 46.5538C129.388 48.0872 130.511 47.9935 131.482 46.2933C132.529 44.5107 132.225 41.2584 130.916 39.9442C129.924 38.9294 129.768 38.8976 129.119 39.362Z" fill="black"/>
<path d="M120.267 48.0569C119.772 50.2458 122.062 55.5668 124.804 58.5436C125.639 59.4872 127.292 60.588 128.859 61.2994C131.327 62.4001 131.716 62.46 135.552 62.2742C139.233 62.096 139.851 61.948 142.037 60.8188C144.836 59.345 148.586 55.2666 148.552 53.6938C148.521 52.3176 147.558 52.6004 144.932 54.8925C142.039 57.3942 140.661 58.2088 138.23 58.7989C135.915 59.3439 132.144 58.9754 130.067 58.0132C127.598 56.8732 123.893 52.4079 122.377 48.742C121.599 46.8903 120.622 46.544 120.267 48.0569Z" fill="black"/>
<g filter="url(#filter0_d_50_6)">
<path d="M162.74 66.4655L162.227 46.172L166.054 46.0753L166.567 66.3688L162.74 66.4655ZM176.008 66.1301C175.061 66.1541 174.281 65.8837 173.667 65.319C173.072 64.7345 172.762 63.9495 172.737 62.9638L172.532 54.8464L168.937 54.9372L168.861 51.9222L172.456 51.8313L172.343 47.3668L175.996 47.2744L176.109 51.739L180.051 51.6393L180.128 54.6544L176.185 54.754L176.374 62.2336C176.389 62.8135 176.667 63.0965 177.208 63.0828L179.991 63.0125L180.067 66.0275L176.008 66.1301ZM183.977 54.528L183.928 52.5567L185.058 52.5281C185.947 52.5056 186.381 52.0499 186.358 51.1608L186.335 50.2331L185.842 50.2456C185.069 50.2651 184.415 50.0495 183.882 49.5989C183.368 49.1477 183.102 48.5646 183.083 47.8495C183.064 47.0764 183.299 46.4419 183.79 45.9461C184.299 45.4497 184.941 45.1917 185.714 45.1722C186.506 45.1522 187.16 45.387 187.675 45.8768C188.19 46.3473 188.458 46.9981 188.479 47.8292L188.563 51.1631C188.618 53.3277 187.563 54.4374 185.398 54.4921L183.977 54.528ZM198.225 65.9747C196.351 66.0221 194.804 65.655 193.585 64.8736C192.366 64.0921 191.612 62.9508 191.323 61.4496L194.664 60.4949C194.816 61.1679 195.052 61.6938 195.371 62.0726C195.709 62.4508 196.113 62.721 196.581 62.8832C197.068 63.0256 197.592 63.0898 198.152 63.0756C199.003 63.0541 199.627 62.8933 200.026 62.5931C200.424 62.2736 200.617 61.8916 200.606 61.4471C200.595 61.0025 200.393 60.6692 200 60.4471C199.607 60.2056 198.984 60.0183 198.13 59.8851L197.314 59.7607C196.304 59.5928 195.38 59.3551 194.54 59.0476C193.7 58.7207 193.022 58.264 192.504 57.6776C191.986 57.0912 191.716 56.3244 191.692 55.3774C191.655 53.9472 192.15 52.842 193.174 52.0619C194.198 51.2624 195.561 50.8412 197.262 50.7982C198.866 50.7576 200.208 51.0815 201.29 51.7697C202.371 52.4579 203.09 53.3777 203.448 54.529L200.082 55.6585C199.909 54.9279 199.577 54.4142 199.086 54.1171C198.614 53.8196 198.031 53.6797 197.335 53.6972C196.639 53.7148 196.111 53.8539 195.75 54.1144C195.389 54.3556 195.213 54.6888 195.224 55.114C195.236 55.5779 195.438 55.9209 195.83 56.1431C196.222 56.3459 196.748 56.497 197.408 56.5963L198.224 56.7208C199.311 56.8867 200.293 57.1229 201.171 57.4295C202.068 57.7163 202.776 58.1529 203.293 58.7393C203.83 59.3059 204.111 60.0917 204.136 61.0968C204.174 62.6043 203.653 63.7875 202.572 64.6464C201.51 65.4855 200.062 65.9283 198.225 65.9747ZM214.807 65.1494L214.444 50.77L218.039 50.6791L218.078 52.2446L218.6 52.2314C218.839 51.7419 219.244 51.3159 219.815 50.9533C220.386 50.5714 221.144 50.3685 222.091 50.3446C223.116 50.3187 223.942 50.5009 224.571 50.8911C225.199 51.262 225.686 51.7622 226.03 52.3917L226.552 52.3785C226.865 51.7518 227.316 51.2279 227.905 50.8069C228.494 50.3858 229.339 50.1614 230.441 50.1336C231.33 50.1111 232.137 50.2841 232.862 50.6526C233.605 51.0012 234.2 51.5567 234.644 52.319C235.108 53.0616 235.354 54.0126 235.384 55.1723L235.623 64.6232L231.97 64.7156L231.737 55.5255C231.717 54.7331 231.5 54.1488 231.084 53.7725C230.668 53.3769 230.093 53.1883 229.358 53.2069C228.527 53.2279 227.886 53.5149 227.436 54.0677C227.005 54.6008 226.802 55.3602 226.827 56.3459L227.041 64.8402L223.388 64.9325L223.156 55.7424C223.136 54.95 222.918 54.3657 222.503 53.9894C222.087 53.5938 221.511 53.4052 220.777 53.4238C219.946 53.4448 219.305 53.7318 218.855 54.2846C218.424 54.8177 218.22 55.5771 218.245 56.5628L218.46 65.0571L214.807 65.1494ZM246.113 64.7642C244.683 64.8003 243.41 64.5328 242.293 63.9615C241.195 63.3704 240.323 62.5318 239.677 61.4458C239.049 60.34 238.716 59.0333 238.678 57.5258L238.669 57.1779C238.631 55.6704 238.898 54.3582 239.469 53.2414C240.04 52.1053 240.859 51.224 241.926 50.5975C242.993 49.9517 244.241 49.6107 245.671 49.5745C247.082 49.5389 248.318 49.8267 249.377 50.4381C250.437 51.0302 251.27 51.8794 251.879 52.9858C252.486 54.0727 252.809 55.3507 252.846 56.8195L252.877 58.0661L242.412 58.3307C242.475 59.3154 242.863 60.1082 243.574 60.7091C244.286 61.31 245.144 61.5977 246.149 61.5723C247.173 61.5464 247.921 61.3051 248.393 60.8483C248.865 60.3916 249.22 59.8895 249.457 59.342L252.483 60.832C252.225 61.3413 251.843 61.9022 251.336 62.5145C250.848 63.107 250.185 63.6266 249.345 64.0733C248.505 64.5007 247.428 64.731 246.113 64.7642ZM242.372 55.6048L249.098 55.4348C248.999 54.6057 248.644 53.9475 248.032 53.4601C247.44 52.9722 246.67 52.7403 245.723 52.7642C244.737 52.7891 243.961 53.0602 243.394 53.5773C242.827 54.0945 242.486 54.7703 242.372 55.6048Z" fill="black"/>
</g>
<defs>
<filter id="filter0_d_50_6" x="162.217" y="43.4838" width="90.8254" height="27.3876" filterUnits="userSpaceOnUse" color-interpolation-filters="sRGB">
<feFlood flood-opacity="0" result="BackgroundImageFix"/>
<feColorMatrix in="SourceAlpha" type="matrix" values="0 0 0 0 0 0 0 0 0 0 0 0 0 0 0 0 0 0 127 0" result="hardAlpha"/>
<feOffset dy="4"/>
<feComposite in2="hardAlpha" operator="out"/>
<feColorMatrix type="matrix" values="0 0 0 0 0.906944 0 0 0 0 0.906944 0 0 0 0 0.906944 0 0 0 0.32 0"/>
<feBlend mode="normal" in2="BackgroundImageFix" result="effect1_dropShadow_50_6"/>
<feBlend mode="normal" in="SourceGraphic" in2="effect1_dropShadow_50_6" result="shape"/>
</filter>
<clipPath id="clip0_50_6">
<rect width="89.1203" height="89.1203" fill="white" transform="matrix(-0.735792 0.677208 0.677208 0.735792 65.574 5)"/>
</clipPath>
</defs>
</svg>
