<?xml version="1.0" encoding="UTF-8"?>
<svg id="Calque_2" data-name="Calque 2" xmlns="http://www.w3.org/2000/svg" viewBox="0 0 216.89 183.38">
  <defs>
    <style>
      .cls-1 {
        fill: #fab9af;
      }

      .cls-2 {
        stroke-width: 5.15px;
      }

      .cls-2, .cls-3, .cls-4 {
        fill: none;
        stroke-linecap: round;
        stroke-linejoin: round;
      }

      .cls-2, .cls-4 {
        stroke: #757678;
      }

      .cls-3 {
        stroke: #747577;
      }

      .cls-3, .cls-4 {
        stroke-width: 5.72px;
      }

      .cls-5 {
        fill: #f7eee6;
      }

      .cls-6 {
        fill: #747577;
      }

      .cls-7 {
        fill: #757678;
      }
    </style>
  </defs>
  <g id="Calque_1-2" data-name="Calque 1">
    <g id="Objet_génératif" data-name="Objet génératif">
      <g>
        <path class="cls-5" d="M193.51,125.3c-19.14,7.1-73.02-2.67-95.75,1.73-.39-.26-.84.02-1.16.01-17.29-.23-34.5,9.11-42.05-16.36l-.28-.65-.7.09c-22.5,5.9-59.65-4.23-48.79-34.53,3.14-8.75,9.03-9.72,10.9-13.23.8-1.51-.2-9.39,1.12-13.09,3.46-9.67,10.19-14.78,20.25-13.62l.72-2.63c3.68-10.84,12.66-15.87,23.31-17.85,2.33-.43,7.05.73,8.58.11,2.61-1.05,6.84-6.39,10.3-8.58,5.02-3.18,12.52-4.51,18.31-3.43,4.02.75,11.77,5.59,13.15,5.67,1.51.08,9.96-4.95,13.74-5.67,11.56-2.2,21.83,4.59,29.3,12.85l.48.47.71-.13c12.7-3.05,26.08,3.68,32.44,15.07,1.53,2.73,1.95,7.7,3.55,9.73,2.16,2.74,7.17,4.74,10.18,8.01,6.83,7.42,9.1,19.14,5.16,28.4l-.19.7c14.92,15.1,4.96,40.17-13.28,46.93Z"/>
        <path class="cls-1" d="M193.51,125.3l.33,2.35c1.81,19.4-25.73,29.72-41.02,24.82l.08,2.66c-1.17,7.03,9.65,18.87,2.01,23.09-17.03,9.4-19.13-12.41-28.6-22.54-8.57-9.16-25.71-13.74-28.72-27.98l.19-.68c22.73-4.4,76.61,5.36,95.75-1.73Z"/>
      </g>
      <g>
        <path class="cls-3" d="M206.78,78.37c14.92,15.1,4.96,40.17-13.28,46.93-19.14,7.1-73.02-2.67-95.75,1.73h-1.16c-17.29-.22-34.5,9.12-42.05-16.35l-.28-.65"/>
        <path class="cls-3" d="M37.76,33.03c3.68-10.84,12.66-15.87,23.31-17.85,2.33-.43,7.05.73,8.58.11,2.61-1.05,6.84-6.39,10.3-8.58,5.02-3.18,12.52-4.51,18.31-3.43,4.02.75,11.77,5.59,13.15,5.67,1.51.08,9.96-4.95,13.74-5.67,11.56-2.2,21.83,4.59,29.3,12.85l.48.47"/>
        <path class="cls-6" d="M208.93,80.26c-4.97,6.02-13.16,9.22-20.83,9.06-3.05-.21-9.34-.57-8.44-4.89,1.17-4.19,5.73-.5,8.39-.83,6.46.04,12.38-2.17,16.59-7.12,2.56-2.77,6.72.88,4.29,3.78h0Z"/>
        <path class="cls-6" d="M48.06,41.23c-4.2-.67-7.22-2.09-10.88-2.67-4.34-.64-9.08.16-12.36,3.2-2.61,2.32-4.39,5.65-5.47,8.96-.76,3.57-.21,7.4-.61,11.16-.1.71-.3,1.49-.7,2.11-1.19,2.14-3.79,3.78-5.35,5.1-2.58,2.09-4.32,4.75-5.34,7.89-9.72,27.72,26.26,35.74,46.56,30.22,3.73-.4,4.5,5.06.75,5.67,0,0-.7.09-.7.09,0,0,.35-.07.35-.07-6.19,1.6-12.51,1.97-18.76,1.5C20.06,113.42.76,104.99.03,87.2c-.21-4.18.58-8.23,1.89-12.09,1.27-3.99,3.82-7.8,7.08-10.41,1.65-1.44,3.1-2.16,4.12-3.65,0,0,.02-.03.02-.03-.05.07-.09.15-.11.24.43-4.24-.38-9.05,1.19-13.29,4.04-11.65,14.14-17.61,26.24-14.57,3.11.77,5.9,1.79,8.44,2.18,1.76,1.1,4.65,2.87,4.49,5.06-.28,1.8-2.57,2.33-4.07,1.9-.39-.16-.96-.97-1.27-1.31h0Z"/>
        <path class="cls-3" d="M206.78,78.37l.19-.7c3.94-9.26,1.67-20.98-5.16-28.4-3.01-3.27-8.02-5.27-10.18-8.01-1.6-2.03-2.02-7-3.55-9.73-6.37-11.39-19.74-18.12-32.44-15.07l-.71.13"/>
        <path class="cls-6" d="M157.18,18.35l-12.04,15.51c-1.78,1.49-5.09,3.58-6.77,2.01-2.47-2.38-.04-4.22,2.25-5.52l12.04-15.51c2.38-2.92,6.76.47,4.52,3.51h0Z"/>
        <path class="cls-3" d="M105.24,72.84c-24.27,1.2-42.16,14.86-50.98,37.19"/>
        <path class="cls-6" d="M102.44,72.27c1.74-9.55,7.97-18.76,17.16-22.63,5.02-2.08,10.65-1.47,15.69-1.16,2.18.1,4.2.03,6-.45,3.11-.9,5.91-2.96,7.8-5.66,1.44-1.99,2.83-6.04,5.84-5.5,5.74,1.76-2.55,10.71-5,12.83-6.3,5.79-14.11,4.48-21.66,4.16-10.78-.26-18.39,9.66-20.22,19.54-.82,3.67-6.26,2.61-5.61-1.12h0Z"/>
        <line class="cls-3" x1="105.24" y1="72.84" x2="114.44" y2="79.18"/>
        <path class="cls-3" d="M49.7,79.65c-1.41-8.9-3.68-14.52-10.77-20.61"/>
        <line class="cls-3" x1="49.7" y1="79.65" x2="60.79" y2="93.39"/>
        <line class="cls-3" x1="49.7" y1="79.65" x2="40.1" y2="90.46"/>
        <path class="cls-3" d="M193.83,127.65c1.81,19.4-25.73,29.72-41.02,24.82-11.17-3.57-19.1-12.96-23.55-23.43"/>
        <path class="cls-3" d="M100.61,112.87c-.93,4.93-4.11,9.81-3.05,14.84,3.01,14.24,20.15,18.81,28.72,27.98,9.48,10.13,11.58,31.94,28.6,22.54,7.64-4.22-3.17-16.06-2.01-23.09"/>
        <path class="cls-7" d="M84.86,46.02l-3.62-10.7c-.9-1.23-2.68-2.81-2.04-4.41.51-.58,1.37-1.46,1.98-1.97,1.72-.28,4.41,3.11,5.49,4.54l3.62,10.7c1.12,3.6-4.12,5.38-5.42,1.83h0Z"/>
        <path class="cls-4" d="M87.57,45.1c10.41.28,17.4-5.18,24.39-12.24"/>
        <line class="cls-4" x1="87.57" y1="45.1" x2="70.01" y2="56.22"/>
        <path class="cls-2" d="M170.89,70.11c-31.83-5.62-30.81,29.28-3.55,35.9"/>
        <path class="cls-7" d="M160.49,90.96c-11.18-3.22-23.86-1.68-33.11,5.66-2.51,1.92-5.65,4.98-8.48,6.4-2.6,1.09-5.28-.18-7.68-.9-3.22-1.09-6.16-2.47-9.49-2.41-6.42-.17-12.69,2.67-17.03,7.39-1.15,1.52-3.19,4.45-4.93,2.35-3.53-4.37,7.13-11.2,10.61-12.62,4.48-1.97,9.53-2.67,14.38-2.06,4.13.64,7.63,2.65,11.56,3.47.28.05.63.06.53.06-.07.03-.06.02-.05.01,2.11-1.2,5.39-4.19,7.36-5.72,7.38-5.88,17.2-8.74,26.6-8.38,3.77.17,7.48.82,11.06,1.77,1.37.37,2.19,1.78,1.83,3.15-.37,1.38-1.79,2.2-3.17,1.82h0Z"/>
      </g>
    </g>
  </g>
</svg>